<mxfile host="app.diagrams.net" modified="2024-05-21T13:42:49.921Z" agent="Mozilla/5.0 (Windows NT 10.0; Win64; x64) AppleWebKit/537.36 (KHTML, like Gecko) Chrome/124.0.0.0 Safari/537.36" etag="EELHoRiRE_D4UGbzhKFH" version="24.4.4" type="device">
  <diagram name="Page-1" id="2YBvvXClWsGukQMizWep">
    <mxGraphModel dx="1728" dy="915" grid="1" gridSize="10" guides="1" tooltips="1" connect="1" arrows="1" fold="1" page="1" pageScale="1" pageWidth="850" pageHeight="1100" math="0" shadow="0">
      <root>
        <mxCell id="0" />
        <mxCell id="1" parent="0" />
        <mxCell id="XH4QbvNFhtn40Xqlw8ON-10" value="" style="rounded=0;whiteSpace=wrap;html=1;fillColor=none;strokeColor=#b85450;" parent="1" vertex="1">
          <mxGeometry x="120" y="310" width="290" height="320" as="geometry" />
        </mxCell>
        <mxCell id="XH4QbvNFhtn40Xqlw8ON-14" value="" style="endArrow=none;endSize=12;dashed=1;html=1;rounded=0;exitX=0.004;exitY=0.861;exitDx=0;exitDy=0;exitPerimeter=0;strokeColor=#FF9999;endFill=0;entryX=1;entryY=0.821;entryDx=0;entryDy=0;entryPerimeter=0;" parent="1" edge="1">
          <mxGeometry width="160" relative="1" as="geometry">
            <mxPoint x="120.83999999999992" y="519.7549999999999" as="sourcePoint" />
            <mxPoint x="410" y="519.0749999999998" as="targetPoint" />
          </mxGeometry>
        </mxCell>
        <mxCell id="3ifhk_15LhZ3aUZiaHkP-1" value="SD : Ajouter un utilisateur" style="shape=umlFrame;whiteSpace=wrap;html=1;pointerEvents=0;width=200;height=40;" parent="1" vertex="1">
          <mxGeometry x="80" y="80" width="640" height="570" as="geometry" />
        </mxCell>
        <mxCell id="3ifhk_15LhZ3aUZiaHkP-2" value="Jean:Client" style="shape=umlLifeline;perimeter=lifelinePerimeter;whiteSpace=wrap;html=1;container=1;dropTarget=0;collapsible=0;recursiveResize=0;outlineConnect=0;portConstraint=eastwest;newEdgeStyle={&quot;curved&quot;:0,&quot;rounded&quot;:0};participant=umlActor;size=40;" parent="1" vertex="1">
          <mxGeometry x="130" y="160" width="20" height="490" as="geometry" />
        </mxCell>
        <mxCell id="3ifhk_15LhZ3aUZiaHkP-23" value="" style="html=1;points=[[0,0,0,0,5],[0,1,0,0,-5],[1,0,0,0,5],[1,1,0,0,-5]];perimeter=orthogonalPerimeter;outlineConnect=0;targetShapes=umlLifeline;portConstraint=eastwest;newEdgeStyle={&quot;curved&quot;:0,&quot;rounded&quot;:0};" parent="3ifhk_15LhZ3aUZiaHkP-2" vertex="1">
          <mxGeometry x="5" y="120" width="10" height="199" as="geometry" />
        </mxCell>
        <mxCell id="3ifhk_15LhZ3aUZiaHkP-3" value=":Système de connexion" style="shape=umlLifeline;perimeter=lifelinePerimeter;whiteSpace=wrap;html=1;container=1;dropTarget=0;collapsible=0;recursiveResize=0;outlineConnect=0;portConstraint=eastwest;newEdgeStyle={&quot;curved&quot;:0,&quot;rounded&quot;:0};" parent="1" vertex="1">
          <mxGeometry x="330" y="160" width="100" height="490" as="geometry" />
        </mxCell>
        <mxCell id="3ifhk_15LhZ3aUZiaHkP-10" value="" style="html=1;points=[[0,0,0,0,5],[0,1,0,0,-5],[1,0,0,0,5],[1,1,0,0,-5]];perimeter=orthogonalPerimeter;outlineConnect=0;targetShapes=umlLifeline;portConstraint=eastwest;newEdgeStyle={&quot;curved&quot;:0,&quot;rounded&quot;:0};" parent="3ifhk_15LhZ3aUZiaHkP-3" vertex="1">
          <mxGeometry x="45" y="120" width="10" height="80" as="geometry" />
        </mxCell>
        <mxCell id="XH4QbvNFhtn40Xqlw8ON-1" style="edgeStyle=orthogonalEdgeStyle;rounded=0;orthogonalLoop=1;jettySize=auto;html=1;curved=0;" parent="3ifhk_15LhZ3aUZiaHkP-3" target="3ifhk_15LhZ3aUZiaHkP-10" edge="1">
          <mxGeometry relative="1" as="geometry">
            <mxPoint x="50" y="120" as="sourcePoint" />
            <mxPoint x="55" y="208" as="targetPoint" />
            <Array as="points">
              <mxPoint x="50" y="110" />
              <mxPoint x="70" y="110" />
              <mxPoint x="70" y="210" />
              <mxPoint x="50" y="210" />
            </Array>
          </mxGeometry>
        </mxCell>
        <mxCell id="XH4QbvNFhtn40Xqlw8ON-2" value="Vérifier l&#39;identité" style="edgeLabel;html=1;align=center;verticalAlign=middle;resizable=0;points=[];" parent="XH4QbvNFhtn40Xqlw8ON-1" vertex="1" connectable="0">
          <mxGeometry x="-0.0375" relative="1" as="geometry">
            <mxPoint x="30" y="3" as="offset" />
          </mxGeometry>
        </mxCell>
        <mxCell id="XH4QbvNFhtn40Xqlw8ON-19" value="" style="html=1;points=[[0,0,0,0,5],[0,1,0,0,-5],[1,0,0,0,5],[1,1,0,0,-5]];perimeter=orthogonalPerimeter;outlineConnect=0;targetShapes=umlLifeline;portConstraint=eastwest;newEdgeStyle={&quot;curved&quot;:0,&quot;rounded&quot;:0};" parent="3ifhk_15LhZ3aUZiaHkP-3" vertex="1">
          <mxGeometry x="45" y="372" width="10" height="80" as="geometry" />
        </mxCell>
        <mxCell id="3ifhk_15LhZ3aUZiaHkP-4" value=":API BileMo" style="shape=umlLifeline;perimeter=lifelinePerimeter;whiteSpace=wrap;html=1;container=1;dropTarget=0;collapsible=0;recursiveResize=0;outlineConnect=0;portConstraint=eastwest;newEdgeStyle={&quot;curved&quot;:0,&quot;rounded&quot;:0};" parent="1" vertex="1">
          <mxGeometry x="570" y="160" width="100" height="490" as="geometry" />
        </mxCell>
        <mxCell id="3ifhk_15LhZ3aUZiaHkP-6" value="" style="html=1;points=[[0,0,0,0,5],[0,1,0,0,-5],[1,0,0,0,5],[1,1,0,0,-5]];perimeter=orthogonalPerimeter;outlineConnect=0;targetShapes=umlLifeline;portConstraint=eastwest;newEdgeStyle={&quot;curved&quot;:0,&quot;rounded&quot;:0};" parent="3ifhk_15LhZ3aUZiaHkP-4" vertex="1">
          <mxGeometry x="45" y="249" width="10" height="65" as="geometry" />
        </mxCell>
        <mxCell id="3ifhk_15LhZ3aUZiaHkP-7" style="rounded=0;orthogonalLoop=1;jettySize=auto;html=1;entryX=0;entryY=0;entryDx=0;entryDy=5;entryPerimeter=0;exitX=1;exitY=0;exitDx=0;exitDy=5;exitPerimeter=0;" parent="1" source="3ifhk_15LhZ3aUZiaHkP-23" target="3ifhk_15LhZ3aUZiaHkP-10" edge="1">
          <mxGeometry relative="1" as="geometry">
            <mxPoint x="150" y="270" as="sourcePoint" />
            <mxPoint x="295" y="270" as="targetPoint" />
          </mxGeometry>
        </mxCell>
        <mxCell id="3ifhk_15LhZ3aUZiaHkP-9" value="Se connecter" style="edgeLabel;html=1;align=center;verticalAlign=middle;resizable=0;points=[];" parent="3ifhk_15LhZ3aUZiaHkP-7" vertex="1" connectable="0">
          <mxGeometry x="-0.0169" y="-1" relative="1" as="geometry">
            <mxPoint y="-11" as="offset" />
          </mxGeometry>
        </mxCell>
        <mxCell id="3ifhk_15LhZ3aUZiaHkP-12" style="rounded=0;orthogonalLoop=1;jettySize=auto;html=1;exitX=0;exitY=1;exitDx=0;exitDy=-5;exitPerimeter=0;dashed=1;" parent="1" edge="1">
          <mxGeometry relative="1" as="geometry">
            <mxPoint x="375" y="364" as="sourcePoint" />
            <mxPoint x="145" y="364" as="targetPoint" />
          </mxGeometry>
        </mxCell>
        <mxCell id="3ifhk_15LhZ3aUZiaHkP-14" value="Connexion réussie" style="edgeLabel;html=1;align=center;verticalAlign=middle;resizable=0;points=[];" parent="3ifhk_15LhZ3aUZiaHkP-12" vertex="1" connectable="0">
          <mxGeometry x="0.1054" y="3" relative="1" as="geometry">
            <mxPoint x="11" y="-13" as="offset" />
          </mxGeometry>
        </mxCell>
        <mxCell id="3ifhk_15LhZ3aUZiaHkP-21" style="rounded=0;orthogonalLoop=1;jettySize=auto;html=1;" parent="1" edge="1">
          <mxGeometry relative="1" as="geometry">
            <mxPoint x="145" y="415.8" as="sourcePoint" />
            <mxPoint x="615" y="415.8" as="targetPoint" />
          </mxGeometry>
        </mxCell>
        <mxCell id="3ifhk_15LhZ3aUZiaHkP-22" value="Ajouter un utilisateur" style="edgeLabel;html=1;align=center;verticalAlign=middle;resizable=0;points=[];" parent="3ifhk_15LhZ3aUZiaHkP-21" vertex="1" connectable="0">
          <mxGeometry x="-0.1738" y="-2" relative="1" as="geometry">
            <mxPoint x="31" y="-10" as="offset" />
          </mxGeometry>
        </mxCell>
        <mxCell id="XH4QbvNFhtn40Xqlw8ON-22" style="rounded=0;orthogonalLoop=1;jettySize=auto;html=1;dashed=1;" parent="1" source="XH4QbvNFhtn40Xqlw8ON-19" edge="1">
          <mxGeometry relative="1" as="geometry">
            <mxPoint x="290" y="572" as="sourcePoint" />
            <mxPoint x="140" y="572" as="targetPoint" />
          </mxGeometry>
        </mxCell>
        <mxCell id="XH4QbvNFhtn40Xqlw8ON-23" value="Erreur de connexion" style="edgeLabel;html=1;align=center;verticalAlign=middle;resizable=0;points=[];" parent="XH4QbvNFhtn40Xqlw8ON-22" vertex="1" connectable="0">
          <mxGeometry x="0.1054" y="3" relative="1" as="geometry">
            <mxPoint x="11" y="-13" as="offset" />
          </mxGeometry>
        </mxCell>
        <mxCell id="2gW9bqpExKbYKmnwV7pb-1" style="rounded=0;orthogonalLoop=1;jettySize=auto;html=1;dashed=1;" parent="1" edge="1">
          <mxGeometry relative="1" as="geometry">
            <mxPoint x="615" y="468.65999999999997" as="sourcePoint" />
            <mxPoint x="145" y="468.65999999999985" as="targetPoint" />
          </mxGeometry>
        </mxCell>
        <mxCell id="2gW9bqpExKbYKmnwV7pb-2" value="Utilisateur ajouté" style="edgeLabel;html=1;align=center;verticalAlign=middle;resizable=0;points=[];" parent="2gW9bqpExKbYKmnwV7pb-1" vertex="1" connectable="0">
          <mxGeometry x="0.485" y="-1" relative="1" as="geometry">
            <mxPoint x="109" y="-10" as="offset" />
          </mxGeometry>
        </mxCell>
        <mxCell id="XH4QbvNFhtn40Xqlw8ON-11" value="Alt:Identité du client confirmée" style="text;html=1;align=center;verticalAlign=middle;resizable=0;points=[];autosize=1;strokeColor=#b85450;fillColor=none;fontColor=#d98787;fontSize=8;" parent="1" vertex="1">
          <mxGeometry x="125" y="310" width="130" height="20" as="geometry" />
        </mxCell>
      </root>
    </mxGraphModel>
  </diagram>
</mxfile>
